<?xml version="1.0" standalone="no"?>
<!DOCTYPE svg PUBLIC "-//W3C//DTD SVG 20010904//EN"
 "http://www.w3.org/TR/2001/REC-SVG-20010904/DTD/svg10.dtd">
<svg version="1.0" xmlns="http://www.w3.org/2000/svg"
 width="700.000000pt" height="700.000000pt" viewBox="0 0 700.000000 700.000000"
 preserveAspectRatio="xMidYMid meet">
<metadata>
Created by potrace 1.11, written by Peter Selinger 2001-2013
</metadata>
<g transform="translate(0.000000,700.000000) scale(0.100000,-0.100000)"
fill="#000000" stroke="none">
<path d="M948 6445 c-2 -2 -41 -5 -88 -8 -47 -4 -110 -12 -140 -18 -30 -7 -58
-12 -62 -11 -4 1 -15 -9 -23 -22 -17 -26 -22 -80 -29 -321 -5 -158 -14 -332
-21 -410 -9 -89 -18 -341 -19 -520 -1 -162 2 -195 16 -225 27 -54 67 -73 154
-72 255 2 496 56 622 140 177 116 247 245 204 371 -21 62 -108 145 -203 195
l-74 38 57 58 c89 91 128 183 133 316 5 118 -18 189 -92 281 -41 52 -140 123
-217 159 -47 21 -209 57 -218 49z m152 -241 c76 -36 153 -109 170 -161 27 -80
-9 -207 -75 -268 -68 -62 -102 -79 -196 -99 -56 -12 -162 -10 -207 2 -8 2 -8
3 3 222 4 85 7 193 8 240 0 47 5 88 10 91 5 4 57 6 116 5 96 -1 112 -4 171
-32z m-125 -748 c93 -6 208 -41 308 -93 112 -59 120 -92 39 -164 -102 -91
-252 -137 -498 -154 l-61 -4 3 182 c1 100 3 196 3 214 l1 32 63 -4 c34 -3 98
-7 142 -9z"/>
<path d="M2930 6437 c-35 -17 -67 -69 -74 -121 -4 -24 -5 -349 -2 -721 4 -602
6 -679 21 -701 31 -47 87 -53 130 -13 20 18 22 18 72 -1 72 -27 96 -31 198
-35 155 -5 268 38 371 141 67 67 136 192 149 269 30 175 -2 349 -85 470 -145
211 -393 259 -624 120 l-58 -36 2 293 c2 161 2 300 1 309 -2 29 -63 45 -101
26z m524 -726 c147 -66 215 -289 146 -475 -29 -76 -105 -154 -180 -183 -85
-33 -200 -27 -307 17 l-83 33 -1 51 c-1 65 -1 382 0 417 2 43 157 141 256 162
38 8 128 -3 169 -22z"/>
<path d="M2143 5905 c-199 -43 -375 -228 -421 -441 -15 -68 -14 -214 2 -297
35 -180 124 -284 273 -318 137 -31 214 -21 362 47 l73 34 60 -55 c64 -60 96
-68 135 -37 43 33 42 55 -4 173 -24 59 -49 143 -56 186 -21 121 -9 465 18 507
44 70 -38 152 -195 195 -85 24 -157 25 -247 6z m231 -194 c11 -9 11 -21 4 -54
-10 -39 -12 -247 -4 -327 2 -19 7 -71 11 -115 4 -44 9 -83 11 -87 5 -8 -15
-29 -60 -63 -97 -74 -274 -79 -346 -10 -52 50 -76 120 -84 247 -8 120 39 243
127 330 64 65 100 85 182 102 62 14 126 4 159 -23z"/>
<path d="M4793 5913 c-13 -2 -32 -16 -43 -30 -23 -29 -132 -242 -180 -353 -18
-41 -41 -93 -50 -115 -10 -22 -32 -75 -50 -117 -18 -43 -37 -75 -41 -72 -5 3
-9 10 -9 15 0 6 -38 88 -85 182 -94 189 -225 414 -267 459 -58 62 -169 14
-168 -74 0 -13 13 -45 29 -73 70 -125 90 -164 314 -595 79 -153 84 -167 72
-190 -29 -55 -134 -310 -164 -397 -49 -144 -47 -199 10 -229 42 -21 85 -18
112 10 14 14 42 78 71 162 27 77 64 177 83 224 39 94 78 181 180 400 219 470
313 680 313 701 0 34 -27 69 -66 85 -18 8 -35 13 -36 13 -2 -1 -13 -4 -25 -6z"/>
<path d="M5584 4415 c-24 -22 -27 -32 -26 -78 3 -69 4 -835 1 -1100 -1 -114
-6 -233 -12 -263 -12 -71 -4 -100 36 -124 39 -24 75 -25 105 -4 50 35 61 90
67 346 4 162 3 158 87 290 91 142 182 199 305 190 15 -1 28 -16 43 -47 20 -42
22 -64 25 -248 3 -205 5 -235 31 -387 21 -124 32 -157 61 -180 59 -46 151 -4
154 71 1 13 -6 60 -14 104 -8 44 -18 114 -22 155 -3 41 -8 87 -11 101 -2 15
-6 73 -9 130 -14 308 -28 374 -87 436 -17 18 -52 39 -77 48 -164 54 -325 -2
-460 -159 l-34 -40 7 220 c12 349 8 446 -20 512 -23 56 -103 70 -150 27z"/>
<path d="M1175 4303 c-89 -15 -140 -30 -204 -59 -415 -191 -446 -596 -51 -677
41 -9 109 -18 150 -21 98 -7 163 -20 231 -46 123 -49 182 -122 181 -226 0 -96
-59 -172 -176 -229 -101 -49 -180 -65 -306 -61 -157 5 -219 34 -295 140 -40
55 -57 66 -108 66 -38 0 -87 -49 -87 -87 0 -49 20 -103 53 -140 131 -150 446
-210 707 -134 149 42 289 136 354 237 60 93 79 254 41 359 -57 160 -212 267
-420 289 -22 3 -69 7 -105 11 -204 19 -280 57 -280 137 0 109 105 207 259 244
65 15 200 11 285 -10 85 -20 171 -16 190 9 38 50 9 111 -68 145 -87 37 -277
66 -351 53z"/>
<path d="M5034 3945 c-71 -24 -167 -55 -214 -70 -200 -64 -289 -162 -290 -319
0 -50 6 -82 20 -112 35 -71 77 -91 327 -155 136 -35 199 -88 208 -175 2 -29
-3 -41 -26 -63 -82 -79 -337 -76 -449 5 -55 39 -73 41 -117 14 -34 -20 -53
-66 -45 -109 8 -38 74 -97 138 -121 189 -71 428 -59 565 29 93 59 135 147 126
265 -16 207 -157 319 -482 381 -22 5 -46 9 -53 11 -23 4 -25 12 -13 43 27 64
92 104 246 151 55 17 108 33 117 36 13 4 18 -3 24 -33 10 -54 30 -90 56 -99
98 -31 154 41 128 164 -5 20 -11 58 -13 84 -14 123 -61 136 -253 73z"/>
<path d="M1962 3933 c-42 -37 -52 -94 -45 -273 8 -233 8 -343 -1 -435 -31
-324 28 -479 153 -407 47 26 55 56 42 159 -7 48 -10 113 -7 143 3 30 8 96 11
146 4 50 8 102 9 116 5 47 168 230 257 290 39 26 45 27 55 13 16 -21 23 -81
29 -235 5 -121 9 -174 19 -249 10 -69 24 -277 25 -359 1 -45 6 -58 30 -83 40
-40 99 -41 135 -3 36 40 37 51 21 243 -4 41 -8 82 -10 91 -2 9 -6 53 -10 96
-4 43 -9 82 -11 85 -2 4 -6 63 -10 133 -7 148 -9 143 96 210 127 82 177 94
205 52 23 -34 54 -122 60 -170 3 -23 8 -52 10 -66 2 -14 7 -54 10 -90 4 -36 8
-76 10 -90 4 -24 6 -51 20 -210 4 -36 8 -74 10 -85 1 -11 6 -45 10 -75 6 -40
15 -62 36 -82 56 -57 157 -21 161 57 1 21 -10 133 -17 175 -3 14 -7 50 -10 80
-3 30 -12 102 -20 160 -8 58 -17 128 -20 155 -3 28 -8 59 -10 70 -2 11 -7 47
-10 80 -15 134 -38 198 -93 253 -100 100 -307 77 -428 -47 l-32 -32 -23 42
c-13 24 -43 57 -67 74 -38 26 -52 30 -111 30 -61 0 -73 -4 -122 -36 -71 -48
-130 -106 -175 -174 -20 -30 -38 -55 -39 -55 -1 0 0 56 2 124 l4 124 -31 36
c-37 41 -83 48 -118 19z"/>
<path d="M3830 3866 c-204 -57 -365 -238 -406 -456 -13 -70 -5 -235 16 -314
48 -190 157 -278 361 -292 95 -7 166 10 282 68 l58 29 55 -56 c62 -62 102 -72
142 -35 37 35 36 59 -8 167 -59 147 -70 217 -65 413 4 184 11 247 30 294 19
44 -3 86 -63 126 -108 72 -267 94 -402 56z m221 -172 l40 -17 -7 -51 c-10 -64
-11 -260 -1 -348 22 -206 22 -194 -9 -222 -77 -69 -218 -101 -311 -73 -85 26
-138 119 -149 262 -12 144 30 260 130 360 49 49 74 65 126 82 79 27 126 28
181 7z"/>
<path d="M1310 2319 c-36 -3 -162 -6 -280 -7 -119 0 -227 -5 -240 -10 -42 -16
-62 -47 -62 -94 1 -35 7 -48 32 -70 33 -30 19 -29 252 -32 81 -1 109 -4 113
-15 6 -15 -2 -549 -9 -646 -3 -33 -7 -96 -11 -140 -15 -205 -45 -346 -81 -387
-20 -21 -67 -16 -146 16 -113 46 -193 126 -203 205 -10 76 -29 108 -73 121
-31 10 -45 9 -74 -3 -30 -13 -39 -23 -48 -59 -46 -169 110 -374 356 -468 43
-17 82 -23 146 -24 81 -1 89 1 129 29 58 41 117 149 134 247 3 17 8 34 10 37
2 4 6 25 9 47 4 22 8 49 10 59 11 57 24 167 31 260 3 39 8 95 10 125 3 30 7
179 10 330 l5 275 67 -1 c38 0 94 -2 125 -5 70 -7 111 10 129 54 18 44 13 77
-17 108 -42 44 -166 62 -324 48z"/>
<path d="M2510 2267 c-147 -17 -308 -102 -419 -223 -121 -132 -132 -300 -28
-405 76 -76 181 -113 352 -124 173 -12 273 -46 353 -119 48 -44 65 -82 65
-147 0 -111 -71 -197 -210 -254 -82 -33 -103 -37 -218 -42 -172 -8 -263 25
-335 122 -64 86 -99 102 -161 70 -37 -20 -51 -55 -43 -108 8 -57 25 -86 77
-134 52 -48 127 -85 235 -115 91 -25 292 -30 382 -9 189 44 348 143 417 259
40 67 55 120 59 204 12 244 -174 420 -469 443 -189 14 -258 29 -313 67 -84 57
-36 199 91 274 106 62 237 75 395 39 50 -11 149 -18 175 -11 35 9 57 58 43 97
-12 35 -61 64 -151 90 -64 17 -98 23 -197 32 -14 2 -59 -1 -100 -6z"/>
</g>
</svg>
