<?xml version="1.0" encoding="UTF-8" standalone="no"?>
<!DOCTYPE svg PUBLIC "-//W3C//DTD SVG 1.1//EN" "http://www.w3.org/Graphics/SVG/1.1/DTD/svg11.dtd">
<svg width="100%" height="100%" viewBox="0 0 100 100" version="1.1" xmlns="http://www.w3.org/2000/svg" xmlns:xlink="http://www.w3.org/1999/xlink" xml:space="preserve" xmlns:serif="http://www.serif.com/" style="fill-rule:evenodd;clip-rule:evenodd;stroke-linejoin:round;stroke-miterlimit:2;">
    <g transform="matrix(1.20965,0,0,1.20965,-27.3027,-24.1428)">
        <g transform="matrix(24,0,0,24,27.0272,44.9512)">
            <path d="M0.433,-0.02C0.359,0.009 0.266,0.023 0.152,0.023C0.138,0.023 0.125,0.017 0.112,0.004C0.1,-0.01 0.093,-0.023 0.093,-0.037L0.093,-0.179C0.093,-0.226 0.096,-0.292 0.102,-0.378C0.109,-0.472 0.112,-0.539 0.113,-0.581C0.112,-0.611 0.114,-0.655 0.118,-0.714C0.12,-0.731 0.126,-0.741 0.134,-0.747C0.179,-0.76 0.229,-0.767 0.285,-0.767C0.342,-0.767 0.397,-0.748 0.45,-0.708C0.511,-0.664 0.542,-0.608 0.542,-0.542C0.542,-0.458 0.509,-0.392 0.444,-0.344C0.493,-0.323 0.529,-0.3 0.553,-0.275C0.578,-0.25 0.59,-0.222 0.59,-0.192C0.59,-0.153 0.569,-0.114 0.526,-0.078C0.496,-0.052 0.465,-0.032 0.433,-0.02ZM0.285,-0.667C0.25,-0.667 0.225,-0.666 0.21,-0.664L0.209,-0.579L0.2,-0.39C0.246,-0.386 0.271,-0.384 0.274,-0.384C0.323,-0.388 0.363,-0.403 0.395,-0.43C0.428,-0.459 0.445,-0.496 0.445,-0.542C0.445,-0.573 0.428,-0.602 0.394,-0.628C0.359,-0.654 0.323,-0.667 0.285,-0.667ZM0.34,-0.276L0.288,-0.285L0.249,-0.283C0.231,-0.283 0.213,-0.285 0.193,-0.288C0.191,-0.247 0.19,-0.21 0.19,-0.178L0.19,-0.077C0.275,-0.08 0.345,-0.092 0.398,-0.113C0.421,-0.122 0.443,-0.135 0.464,-0.154C0.484,-0.171 0.494,-0.183 0.494,-0.192C0.494,-0.207 0.473,-0.224 0.431,-0.244C0.4,-0.258 0.369,-0.269 0.34,-0.276Z" style="fill-rule:nonzero;"/>
        </g>
        <g transform="matrix(24,0,0,24,42.1561,44.9512)">
            <path d="M0.449,0.032C0.443,0.032 0.432,0.025 0.416,0.011C0.401,-0.003 0.39,-0.014 0.383,-0.025C0.352,-0.008 0.324,0.005 0.3,0.013C0.277,0.022 0.257,0.026 0.241,0.026C0.165,0.026 0.109,0.005 0.074,-0.038C0.041,-0.078 0.025,-0.14 0.025,-0.224C0.025,-0.302 0.052,-0.37 0.106,-0.426C0.16,-0.482 0.225,-0.51 0.3,-0.51C0.329,-0.51 0.36,-0.502 0.396,-0.488C0.44,-0.47 0.462,-0.448 0.462,-0.422C0.462,-0.413 0.459,-0.405 0.452,-0.398C0.449,-0.386 0.446,-0.366 0.445,-0.337C0.443,-0.309 0.442,-0.273 0.441,-0.229C0.441,-0.188 0.444,-0.156 0.45,-0.133C0.453,-0.118 0.463,-0.09 0.48,-0.047C0.483,-0.041 0.486,-0.032 0.492,-0.021L0.495,-0.013C0.495,0 0.49,0.011 0.481,0.02C0.472,0.028 0.461,0.032 0.449,0.032ZM0.348,-0.307C0.348,-0.321 0.349,-0.336 0.35,-0.353C0.352,-0.369 0.355,-0.387 0.358,-0.405C0.346,-0.411 0.336,-0.416 0.327,-0.419C0.319,-0.422 0.312,-0.423 0.307,-0.423C0.256,-0.423 0.213,-0.403 0.176,-0.362C0.139,-0.32 0.121,-0.273 0.121,-0.219C0.121,-0.166 0.131,-0.126 0.149,-0.099C0.168,-0.072 0.197,-0.059 0.234,-0.059C0.266,-0.059 0.292,-0.065 0.314,-0.076C0.326,-0.082 0.342,-0.095 0.363,-0.113C0.353,-0.2 0.348,-0.264 0.348,-0.307Z" style="fill-rule:nonzero;"/>
        </g>
        <g transform="matrix(24,0,0,24,54.4373,44.9512)">
            <path d="M0.296,0.021C0.246,0.021 0.201,0.011 0.16,-0.009C0.15,0.007 0.137,0.015 0.122,0.015C0.11,0.015 0.099,0.01 0.091,0.002C0.082,-0.007 0.078,-0.018 0.078,-0.031C0.078,-0.039 0.078,-0.052 0.079,-0.068C0.08,-0.085 0.08,-0.097 0.08,-0.106C0.08,-0.14 0.079,-0.192 0.077,-0.261C0.076,-0.33 0.075,-0.382 0.075,-0.416C0.075,-0.44 0.075,-0.485 0.075,-0.551C0.076,-0.617 0.076,-0.662 0.076,-0.687C0.076,-0.706 0.08,-0.724 0.088,-0.739C0.099,-0.759 0.113,-0.769 0.132,-0.769C0.157,-0.769 0.169,-0.755 0.169,-0.727C0.169,-0.722 0.168,-0.715 0.167,-0.707C0.165,-0.698 0.164,-0.691 0.164,-0.687L0.163,-0.58L0.162,-0.455C0.19,-0.474 0.217,-0.489 0.242,-0.498C0.268,-0.508 0.292,-0.513 0.314,-0.513C0.384,-0.513 0.441,-0.486 0.485,-0.432C0.526,-0.382 0.546,-0.32 0.546,-0.246C0.546,-0.172 0.522,-0.109 0.475,-0.057C0.427,-0.005 0.367,0.021 0.296,0.021ZM0.314,-0.42C0.288,-0.42 0.26,-0.413 0.232,-0.398C0.219,-0.39 0.195,-0.374 0.162,-0.35L0.161,-0.265L0.162,-0.109C0.178,-0.102 0.2,-0.093 0.228,-0.082C0.248,-0.075 0.271,-0.072 0.296,-0.072C0.343,-0.072 0.382,-0.089 0.412,-0.122C0.442,-0.155 0.458,-0.197 0.458,-0.246C0.458,-0.295 0.445,-0.335 0.421,-0.368C0.395,-0.403 0.359,-0.42 0.314,-0.42Z" style="fill-rule:nonzero;"/>
        </g>
        <g transform="matrix(24,0,0,24,68.6756,44.9512)">
            <path d="M0.494,-0.436L0.325,-0.07C0.283,0.019 0.251,0.093 0.229,0.153L0.197,0.248C0.188,0.271 0.174,0.283 0.153,0.283C0.139,0.283 0.127,0.278 0.117,0.269C0.108,0.26 0.103,0.249 0.103,0.236C0.103,0.203 0.138,0.109 0.208,-0.047L0.033,-0.383L0.011,-0.419C0.002,-0.434 -0.002,-0.446 -0.002,-0.457C-0.002,-0.47 0.003,-0.482 0.013,-0.492C0.024,-0.502 0.035,-0.507 0.048,-0.507C0.063,-0.507 0.074,-0.501 0.083,-0.49C0.138,-0.413 0.197,-0.304 0.261,-0.162L0.333,-0.33C0.359,-0.388 0.384,-0.438 0.408,-0.48C0.419,-0.499 0.432,-0.508 0.449,-0.508C0.463,-0.508 0.474,-0.503 0.485,-0.494C0.495,-0.484 0.5,-0.473 0.5,-0.46C0.5,-0.453 0.498,-0.445 0.494,-0.436Z" style="fill-rule:nonzero;"/>
        </g>
        <g transform="matrix(24,0,0,24,27.0272,68.9512)">
            <path d="M0.065,-0.122C0.065,-0.135 0.07,-0.146 0.079,-0.155C0.089,-0.164 0.101,-0.168 0.115,-0.168C0.131,-0.168 0.145,-0.159 0.157,-0.141C0.173,-0.116 0.188,-0.099 0.201,-0.09C0.229,-0.072 0.269,-0.063 0.322,-0.063C0.372,-0.063 0.419,-0.074 0.462,-0.096C0.518,-0.124 0.545,-0.163 0.545,-0.212C0.545,-0.253 0.522,-0.286 0.476,-0.31C0.436,-0.33 0.388,-0.341 0.33,-0.343C0.278,-0.345 0.234,-0.356 0.198,-0.376C0.152,-0.403 0.129,-0.441 0.129,-0.49C0.129,-0.548 0.162,-0.601 0.228,-0.648C0.29,-0.694 0.355,-0.716 0.422,-0.716C0.454,-0.716 0.49,-0.711 0.529,-0.7C0.582,-0.686 0.608,-0.668 0.608,-0.646C0.608,-0.618 0.594,-0.604 0.564,-0.604C0.551,-0.604 0.529,-0.607 0.496,-0.614C0.464,-0.621 0.438,-0.624 0.42,-0.624C0.37,-0.623 0.326,-0.611 0.291,-0.586C0.255,-0.561 0.236,-0.531 0.236,-0.495C0.236,-0.468 0.26,-0.449 0.309,-0.438C0.326,-0.434 0.361,-0.43 0.413,-0.426C0.487,-0.421 0.545,-0.397 0.587,-0.356C0.626,-0.318 0.645,-0.272 0.645,-0.218C0.645,-0.14 0.609,-0.078 0.538,-0.032C0.475,0.008 0.403,0.028 0.321,0.028C0.262,0.028 0.207,0.016 0.158,-0.006C0.097,-0.034 0.066,-0.073 0.065,-0.122Z" style="fill-rule:nonzero;"/>
        </g>
        <g transform="matrix(24,0,0,24,43.6678,68.9512)">
            <path d="M0.688,0.041C0.661,0.041 0.646,0.026 0.641,-0.002C0.635,-0.038 0.629,-0.088 0.624,-0.153L0.607,-0.305C0.604,-0.327 0.598,-0.349 0.59,-0.371C0.579,-0.4 0.567,-0.415 0.554,-0.415C0.542,-0.415 0.52,-0.404 0.487,-0.384C0.456,-0.365 0.435,-0.35 0.425,-0.338C0.425,-0.308 0.426,-0.277 0.428,-0.247L0.442,-0.116C0.449,-0.065 0.452,-0.022 0.452,0.011C0.452,0.026 0.447,0.037 0.438,0.047C0.429,0.056 0.418,0.061 0.404,0.061C0.39,0.061 0.378,0.056 0.369,0.047C0.36,0.037 0.356,0.026 0.356,0.011C0.356,-0.028 0.352,-0.086 0.344,-0.163C0.336,-0.24 0.332,-0.299 0.332,-0.338C0.332,-0.372 0.327,-0.399 0.317,-0.418C0.295,-0.408 0.271,-0.391 0.248,-0.368L0.19,-0.303C0.185,-0.295 0.177,-0.285 0.166,-0.272C0.166,-0.253 0.164,-0.224 0.16,-0.186C0.157,-0.148 0.155,-0.12 0.155,-0.102C0.155,-0.092 0.156,-0.078 0.159,-0.061C0.163,-0.043 0.164,-0.03 0.164,-0.022C0.164,-0.009 0.159,0.002 0.149,0.011C0.139,0.02 0.128,0.025 0.114,0.025C0.077,0.025 0.059,-0.017 0.059,-0.101C0.059,-0.12 0.061,-0.149 0.064,-0.188C0.068,-0.227 0.07,-0.256 0.07,-0.275C0.07,-0.293 0.068,-0.319 0.065,-0.353C0.062,-0.388 0.061,-0.414 0.061,-0.431C0.061,-0.505 0.077,-0.542 0.11,-0.542C0.123,-0.542 0.135,-0.536 0.145,-0.525C0.156,-0.514 0.161,-0.502 0.161,-0.489C0.161,-0.483 0.16,-0.473 0.159,-0.46C0.157,-0.447 0.156,-0.438 0.156,-0.431L0.157,-0.379C0.174,-0.414 0.199,-0.446 0.232,-0.474C0.265,-0.502 0.293,-0.516 0.316,-0.516C0.367,-0.516 0.402,-0.491 0.421,-0.44C0.439,-0.464 0.461,-0.482 0.485,-0.493C0.51,-0.505 0.538,-0.511 0.57,-0.511C0.625,-0.511 0.662,-0.482 0.682,-0.423C0.686,-0.412 0.692,-0.366 0.702,-0.286C0.711,-0.23 0.722,-0.137 0.737,-0.006C0.738,0.007 0.733,0.018 0.724,0.027C0.714,0.036 0.702,0.041 0.688,0.041Z" style="fill-rule:nonzero;"/>
        </g>
        <g transform="matrix(24,0,0,24,62.3123,68.9512)">
            <path d="M0.449,0.032C0.443,0.032 0.432,0.025 0.416,0.011C0.401,-0.003 0.39,-0.014 0.383,-0.025C0.352,-0.008 0.324,0.005 0.3,0.013C0.277,0.022 0.257,0.026 0.241,0.026C0.165,0.026 0.109,0.005 0.074,-0.038C0.041,-0.078 0.025,-0.14 0.025,-0.224C0.025,-0.302 0.052,-0.37 0.106,-0.426C0.16,-0.482 0.225,-0.51 0.3,-0.51C0.329,-0.51 0.36,-0.502 0.396,-0.488C0.44,-0.47 0.462,-0.448 0.462,-0.422C0.462,-0.413 0.459,-0.405 0.452,-0.398C0.449,-0.386 0.446,-0.366 0.445,-0.337C0.443,-0.309 0.442,-0.273 0.441,-0.229C0.441,-0.188 0.444,-0.156 0.45,-0.133C0.453,-0.118 0.463,-0.09 0.48,-0.047C0.483,-0.041 0.486,-0.032 0.492,-0.021L0.495,-0.013C0.495,0 0.49,0.011 0.481,0.02C0.472,0.028 0.461,0.032 0.449,0.032ZM0.348,-0.307C0.348,-0.321 0.349,-0.336 0.35,-0.353C0.352,-0.369 0.355,-0.387 0.358,-0.405C0.346,-0.411 0.336,-0.416 0.327,-0.419C0.319,-0.422 0.312,-0.423 0.307,-0.423C0.256,-0.423 0.213,-0.403 0.176,-0.362C0.139,-0.32 0.121,-0.273 0.121,-0.219C0.121,-0.166 0.131,-0.126 0.149,-0.099C0.168,-0.072 0.197,-0.059 0.234,-0.059C0.266,-0.059 0.292,-0.065 0.314,-0.076C0.326,-0.082 0.342,-0.095 0.363,-0.113C0.353,-0.2 0.348,-0.264 0.348,-0.307Z" style="fill-rule:nonzero;"/>
        </g>
        <g transform="matrix(24,0,0,24,74.5936,68.9512)">
            <path d="M0.397,-0.376C0.38,-0.376 0.367,-0.382 0.36,-0.394C0.355,-0.403 0.351,-0.42 0.347,-0.447C0.323,-0.441 0.285,-0.429 0.234,-0.413C0.182,-0.392 0.156,-0.366 0.155,-0.335C0.165,-0.332 0.175,-0.329 0.184,-0.328C0.259,-0.314 0.315,-0.296 0.351,-0.272C0.404,-0.238 0.431,-0.189 0.431,-0.124C0.431,-0.071 0.408,-0.031 0.362,-0.004C0.324,0.018 0.276,0.029 0.217,0.029C0.175,0.029 0.134,0.022 0.095,0.008C0.045,-0.01 0.02,-0.036 0.02,-0.068C0.02,-0.081 0.025,-0.093 0.035,-0.103C0.046,-0.112 0.057,-0.117 0.07,-0.117C0.08,-0.117 0.093,-0.109 0.109,-0.094C0.117,-0.086 0.135,-0.08 0.162,-0.075C0.184,-0.071 0.202,-0.069 0.217,-0.069C0.245,-0.069 0.269,-0.073 0.29,-0.079C0.32,-0.089 0.335,-0.104 0.335,-0.124C0.335,-0.168 0.304,-0.198 0.242,-0.214L0.191,-0.225C0.148,-0.235 0.117,-0.246 0.099,-0.258C0.073,-0.277 0.06,-0.304 0.06,-0.341C0.06,-0.409 0.092,-0.457 0.156,-0.486C0.175,-0.495 0.207,-0.506 0.25,-0.518C0.292,-0.53 0.323,-0.54 0.342,-0.549C0.355,-0.555 0.37,-0.558 0.385,-0.558C0.399,-0.558 0.411,-0.553 0.42,-0.544C0.429,-0.535 0.433,-0.523 0.433,-0.508C0.433,-0.499 0.435,-0.485 0.439,-0.467C0.443,-0.449 0.445,-0.435 0.445,-0.425C0.445,-0.411 0.441,-0.399 0.432,-0.39C0.423,-0.381 0.411,-0.376 0.397,-0.376Z" style="fill-rule:nonzero;"/>
        </g>
        <g transform="matrix(24,0,0,24,86.2772,68.9512)">
            <path d="M0.477,0.03C0.453,0.03 0.438,0.018 0.431,-0.007C0.424,-0.034 0.417,-0.071 0.411,-0.121C0.405,-0.168 0.402,-0.207 0.402,-0.237C0.402,-0.245 0.402,-0.258 0.403,-0.275C0.404,-0.293 0.404,-0.306 0.404,-0.314C0.404,-0.375 0.389,-0.406 0.358,-0.406C0.317,-0.406 0.28,-0.387 0.248,-0.35C0.231,-0.33 0.208,-0.294 0.179,-0.24C0.179,-0.116 0.174,-0.042 0.164,-0.02C0.154,0.001 0.14,0.011 0.121,0.011C0.108,0.011 0.096,0.006 0.086,-0.003C0.076,-0.012 0.071,-0.023 0.071,-0.036C0.071,-0.041 0.072,-0.048 0.075,-0.058C0.078,-0.066 0.08,-0.09 0.081,-0.129L0.082,-0.201L0.083,-0.56C0.086,-0.6 0.087,-0.628 0.087,-0.642C0.087,-0.658 0.085,-0.674 0.082,-0.689C0.079,-0.704 0.078,-0.719 0.078,-0.735C0.078,-0.749 0.082,-0.76 0.092,-0.769C0.101,-0.778 0.113,-0.782 0.126,-0.782C0.153,-0.782 0.169,-0.768 0.173,-0.739C0.179,-0.708 0.181,-0.679 0.181,-0.654C0.181,-0.62 0.18,-0.584 0.178,-0.547C0.176,-0.511 0.175,-0.476 0.175,-0.44L0.176,-0.397C0.202,-0.433 0.231,-0.46 0.261,-0.477C0.292,-0.495 0.324,-0.504 0.358,-0.504C0.412,-0.504 0.45,-0.486 0.47,-0.451C0.484,-0.426 0.492,-0.385 0.494,-0.326L0.498,-0.233L0.508,-0.131C0.512,-0.093 0.518,-0.06 0.524,-0.031C0.526,-0.025 0.526,-0.021 0.526,-0.017C0.526,-0.003 0.521,0.008 0.512,0.017C0.502,0.026 0.49,0.03 0.477,0.03Z" style="fill-rule:nonzero;"/>
        </g>
        <g transform="matrix(24,0,0,24,27.0272,92.9512)">
            <path d="M0.584,-0.632C0.579,-0.632 0.569,-0.633 0.554,-0.635C0.54,-0.638 0.529,-0.639 0.521,-0.639C0.506,-0.639 0.487,-0.639 0.465,-0.638L0.468,-0.58C0.468,-0.337 0.452,-0.161 0.419,-0.051C0.398,0.022 0.36,0.059 0.307,0.059C0.25,0.059 0.194,0.038 0.138,-0.003C0.077,-0.049 0.046,-0.101 0.046,-0.16C0.046,-0.2 0.062,-0.22 0.095,-0.22C0.128,-0.22 0.145,-0.2 0.145,-0.161C0.145,-0.134 0.164,-0.107 0.202,-0.08C0.239,-0.055 0.274,-0.042 0.307,-0.042C0.333,-0.042 0.352,-0.124 0.362,-0.288C0.367,-0.365 0.37,-0.462 0.37,-0.58C0.37,-0.589 0.369,-0.606 0.367,-0.632L0.337,-0.632C0.325,-0.632 0.306,-0.632 0.28,-0.633C0.254,-0.634 0.235,-0.634 0.222,-0.634C0.208,-0.634 0.196,-0.639 0.186,-0.648C0.176,-0.657 0.171,-0.669 0.171,-0.685C0.171,-0.719 0.194,-0.735 0.239,-0.735C0.25,-0.735 0.267,-0.735 0.289,-0.734C0.31,-0.733 0.327,-0.732 0.337,-0.732C0.358,-0.732 0.389,-0.734 0.429,-0.736C0.47,-0.739 0.501,-0.74 0.521,-0.74C0.596,-0.74 0.633,-0.721 0.633,-0.683C0.633,-0.67 0.628,-0.659 0.62,-0.648C0.61,-0.637 0.598,-0.632 0.584,-0.632Z" style="fill-rule:nonzero;"/>
        </g>
        <g transform="matrix(24,0,0,24,42.9881,92.9512)">
            <path d="M0.065,-0.122C0.065,-0.135 0.07,-0.146 0.079,-0.155C0.089,-0.164 0.101,-0.168 0.115,-0.168C0.131,-0.168 0.145,-0.159 0.157,-0.141C0.173,-0.116 0.188,-0.099 0.201,-0.09C0.229,-0.072 0.269,-0.063 0.322,-0.063C0.372,-0.063 0.419,-0.074 0.462,-0.096C0.518,-0.124 0.545,-0.163 0.545,-0.212C0.545,-0.253 0.522,-0.286 0.476,-0.31C0.436,-0.33 0.388,-0.341 0.33,-0.343C0.278,-0.345 0.234,-0.356 0.198,-0.376C0.152,-0.403 0.129,-0.441 0.129,-0.49C0.129,-0.548 0.162,-0.601 0.228,-0.648C0.29,-0.694 0.355,-0.716 0.422,-0.716C0.454,-0.716 0.49,-0.711 0.529,-0.7C0.582,-0.686 0.608,-0.668 0.608,-0.646C0.608,-0.618 0.594,-0.604 0.564,-0.604C0.551,-0.604 0.529,-0.607 0.496,-0.614C0.464,-0.621 0.438,-0.624 0.42,-0.624C0.37,-0.623 0.326,-0.611 0.291,-0.586C0.255,-0.561 0.236,-0.531 0.236,-0.495C0.236,-0.468 0.26,-0.449 0.309,-0.438C0.326,-0.434 0.361,-0.43 0.413,-0.426C0.487,-0.421 0.545,-0.397 0.587,-0.356C0.626,-0.318 0.645,-0.272 0.645,-0.218C0.645,-0.14 0.609,-0.078 0.538,-0.032C0.475,0.008 0.403,0.028 0.321,0.028C0.262,0.028 0.207,0.016 0.158,-0.006C0.097,-0.034 0.066,-0.073 0.065,-0.122Z" style="fill-rule:nonzero;"/>
        </g>
    </g>
</svg>
